<svg id="Capa_1" data-name="Capa 1" xmlns="http://www.w3.org/2000/svg" viewBox="0 0 80 79"><defs><style>.cls-1{fill:#0053ff;}.cls-2{fill:#fff;stroke:#00b6ff;stroke-miterlimit:10;stroke-width:0.72px;}</style></defs><title>A</title><ellipse class="cls-1" cx="40" cy="39.5" rx="40" ry="39.5"/><path class="cls-2" d="M47.75,61.25V59.34c4.38-.54,4.92-1.23,4-3.82s-2.22-6.06-3.64-10.36H33.52c-1.07,3.07-2.08,5.73-3,8.52-1.48,4.43-.54,5,5,5.66v1.91H19.91V59.34c4.25-.54,5.33-1,7.68-7.16l14-35.79L43.7,16C48,27.64,52.6,40.52,56.84,52.32c2.16,5.93,2.77,6.48,7.55,7v1.91ZM41,24.91C38.85,30.78,36.56,37,34.54,42.37h12.6Z" transform="translate(-0.5 -0.5)"/></svg>