<svg id="Capa_1" data-name="Capa 1" xmlns="http://www.w3.org/2000/svg" viewBox="0 0 80 79"><defs><style>.cls-1{fill:#e700b0;}.cls-2{fill:#fff;stroke:#fc5cff;stroke-miterlimit:10;stroke-width:0.72px;}</style></defs><title>E</title><ellipse class="cls-1" cx="40" cy="39.5" rx="40" ry="39.5"/><path class="cls-2" d="M60,50.41c-.4,1.77-2.22,8.8-2.9,10.84H24.36V59.34c6.27-.48,6.74-1.09,6.74-6.68V25.73c0-6.07-.74-6.41-5.8-6.89v-1.9H45.93c6.33,0,9-.07,9.77-.14.07,1.7.34,6.82.61,10.43l-2,.34a22.54,22.54,0,0,0-2-5.18c-1.08-2.25-2.63-2.73-6.67-2.73h-6.4c-2.09,0-2.23.21-2.23,2.18V36.91h7.48c5.06,0,5.39-1,6.2-5.66h2.09v14H50.64c-.87-4.91-1.41-5.59-6.26-5.59H37V53.27c0,4.78,1.49,5.19,4.86,5.25h6.26c4.11,0,4.79-.61,6.27-2.38A29.1,29.1,0,0,0,58,49.86Z" transform="translate(-0.5 -0.5)"/></svg>