<svg id="Capa_1" data-name="Capa 1" xmlns="http://www.w3.org/2000/svg" viewBox="0 0 80 79"><defs><style>.cls-1{fill:#008b5e;}.cls-2{fill:#fff;stroke:#00d092;stroke-miterlimit:10;stroke-width:0.72px;}</style></defs><title>F</title><ellipse class="cls-1" cx="40" cy="39.5" rx="40" ry="39.5"/><path class="cls-2" d="M54.49,27.57a21.55,21.55,0,0,0-2.09-5c-1.28-2.32-2.29-2.87-6.07-2.87H39.12c-2,0-2.16.21-2.16,2.18V37.59h8.36c4.85,0,5.19-.82,6.2-5.59h2V46.25H51.45c-.87-4.77-1.34-5.86-6.13-5.86H37v12.2c0,5.93.68,6.21,6.81,6.75v1.91H25V59.34c5.46-.41,6.07-.88,6.07-6.75v-27c0-5.93-.68-6.2-6.07-6.75v-1.9H46.4c6.06,0,8.36-.07,9.5-.14.07,2.45.34,7.23.68,10.5Z" transform="translate(-0.5 -0.5)"/></svg>