<svg id="Capa_1" data-name="Capa 1" xmlns="http://www.w3.org/2000/svg" viewBox="0 0 80 79"><defs><style>.cls-1{fill:#d7ff00;}.cls-2{fill:#fff;stroke:#6fff2e;stroke-miterlimit:10;stroke-width:0.67px;}</style></defs><title>N</title><ellipse class="cls-1" cx="40" cy="39.5" rx="40" ry="39.5"/><path class="cls-2" d="M60.5,18.84c-3.7.48-4.91,1.16-5.08,4.3-.06,2.18-.18,5-.18,11.38V61.86H53.05L28.34,26.21v17c0,6.14.17,9.21.28,11.18.12,3.48,1.56,4.5,5.72,4.91v1.91h-14V59.34c3.58-.34,5-1.36,5.2-4.7.17-2.18.28-5.25.28-11.46V25.8a6.69,6.69,0,0,0-1.15-4.5c-1.1-1.71-2.31-2.11-5.14-2.46v-1.9h8.66L52.64,51.23V34.52c0-6.34-.11-9.27-.29-11.31-.17-3.07-1.5-4-6.12-4.37v-1.9H60.5Z" transform="translate(-0.5 -0.5)"/></svg>