<?xml version="1.0" encoding="utf-8"?>
<!-- Generator: Adobe Illustrator 23.0.0, SVG Export Plug-In . SVG Version: 6.00 Build 0)  -->
<svg version="1.1" id="Capa_1" xmlns="http://www.w3.org/2000/svg" xmlns:xlink="http://www.w3.org/1999/xlink" x="0px" y="0px"
	 viewBox="0 0 75 80" style="enable-background:new 0 0 75 80;" xml:space="preserve">
<style type="text/css">
	.st0{fill:#F89100;}
	.st1{fill:#F89100;stroke:#F89100;stroke-width:2.0391;stroke-miterlimit:10;}
	.st2{fill:#00E79C;}
	.st3{fill:#F01C00;}
	.st4{fill:#FA2108;}
	.st5{fill:#0E8FD7;}
	.st6{fill:#535156;}
	.st7{fill:#FEDF00;}
	.st8{fill:#F9DF07;}
	.st9{fill:#2E86FF;}
	.st10{fill:none;stroke:#2E86FF;stroke-width:2.2797;stroke-miterlimit:10;}
	.st11{fill:#FEDE01;}
	.st12{fill:#FDB807;}
	.st13{fill:none;stroke:#FCEE21;stroke-width:0.5098;stroke-miterlimit:10;}
	.st14{fill:#FB946C;}
</style>
<path class="st0" d="M70.9,20.5"/>
<path class="st1" d="M60.8,20.5"/>
<rect x="28.4" width="46.6" height="8.2"/>
<rect x="28.4" y="8.2" class="st2" width="46.6" height="55.4"/>
<rect x="30.4" y="14.4" class="st3" width="20.3" height="4.1"/>
<rect x="30.4" y="22.6" class="st4" width="6.1" height="4.1"/>
<rect x="30.4" y="39" class="st4" width="8.1" height="4.1"/>
<rect x="52.7" y="39" class="st3" width="6.1" height="4.1"/>
<rect x="38.5" y="22.6" class="st5" width="12.2" height="4.1"/>
<rect x="52.7" y="14.4" class="st5" width="4.1" height="4.1"/>
<rect x="58.8" y="14.4" class="st6" width="4.1" height="4.1"/>
<rect x="64.9" y="14.4" class="st5" width="8.1" height="4.1"/>
<rect x="64.9" y="22.6" class="st6" width="4.1" height="4.1"/>
<rect x="70.9" y="22.6" class="st5" width="2" height="4.1"/>
<rect x="52.7" y="22.6" class="st7" width="10.1" height="4.1"/>
<rect x="30.4" y="30.8" class="st5" width="24.3" height="4.1"/>
<rect x="56.8" y="30.8" class="st5" width="2" height="4.1"/>
<rect x="60.8" y="30.8" class="st6" width="4.1" height="4.1"/>
<rect x="66.9" y="30.8" class="st5" width="4.1" height="4.1"/>
<rect x="60.8" y="39" class="st6" width="10.1" height="4.1"/>
<rect x="40.5" y="39" class="st5" width="4.1" height="4.1"/>
<rect x="46.6" y="39" class="st7" width="4.1" height="4.1"/>
<ellipse class="st8" cx="19.3" cy="34.5" rx="17.2" ry="17.4"/>
<g>
	<polygon class="st9" points="27.6,27.3 34.5,34.1 34.5,34.9 27.2,42.1 24.7,39.6 29.8,34.5 24.9,29.5 	"/>
	<polygon class="st9" points="10.9,27.3 4.1,34.1 4.1,34.9 11.4,42.1 13.8,39.6 8.7,34.5 13.6,29.5 	"/>
	<line class="st10" x1="22.3" y1="25.8" x2="15.8" y2="41.8"/>
</g>
<rect y="51.3" class="st11" width="70.9" height="28.7"/>
<rect x="4.1" y="57.4" class="st12" width="62.8" height="16.4"/>
<line class="st13" x1="4.1" y1="61.5" x2="66.9" y2="61.5"/>
<line class="st13" x1="4.1" y1="65.6" x2="66.9" y2="65.6"/>
<line class="st13" x1="4.1" y1="69.7" x2="66.9" y2="69.7"/>
<line class="st13" x1="8.1" y1="57.4" x2="8.1" y2="73.8"/>
<line class="st13" x1="12.2" y1="57.4" x2="12.2" y2="73.8"/>
<line class="st13" x1="16.2" y1="57.4" x2="16.2" y2="73.8"/>
<line class="st13" x1="20.3" y1="57.4" x2="20.3" y2="69.7"/>
<line class="st13" x1="24.3" y1="57.4" x2="24.3" y2="69.7"/>
<line class="st13" x1="28.4" y1="57.4" x2="28.4" y2="69.7"/>
<line class="st13" x1="32.4" y1="57.4" x2="32.4" y2="69.7"/>
<line class="st13" x1="36.5" y1="57.4" x2="36.5" y2="69.7"/>
<line class="st13" x1="40.5" y1="57.4" x2="40.5" y2="73.8"/>
<line class="st13" x1="44.6" y1="57.4" x2="44.6" y2="73.8"/>
<line class="st13" x1="50.7" y1="57.4" x2="50.7" y2="73.8"/>
<line class="st13" x1="56.8" y1="57.4" x2="56.8" y2="73.8"/>
<line class="st13" x1="62.8" y1="57.4" x2="62.8" y2="73.8"/>
<rect x="16.2" y="69.7" class="st14" width="24.3" height="4.1"/>
<rect x="4.1" y="57.4" class="st14" width="4.1" height="4.1"/>
<rect x="56.8" y="53.3" class="st14" width="2" height="2.1"/>
<rect x="60.8" y="53.3" class="st14" width="2" height="2.1"/>
<rect x="64.9" y="53.3" class="st14" width="2" height="2.1"/>
<rect y="77.9" class="st14" width="70.9" height="2.1"/>
</svg>
