<svg id="Capa_1" data-name="Capa 1" xmlns="http://www.w3.org/2000/svg" viewBox="0 0 75 80"><defs><style>.cls-1,.cls-2{fill:#f89100;}.cls-2{stroke:#f89100;stroke-width:2.04px;}.cls-11,.cls-14,.cls-2{stroke-miterlimit:10;}.cls-3{fill:#00e79c;}.cls-4{fill:#f01c00;}.cls-5{fill:#fa2108;}.cls-6{fill:#0e8fd7;}.cls-7{fill:#535156;}.cls-8{fill:#fedf00;}.cls-9{fill:#f9df07;}.cls-10{fill:#2e86ff;}.cls-11,.cls-14{fill:none;}.cls-11{stroke:#2e86ff;stroke-width:2.28px;}.cls-12{fill:#fede01;}.cls-13{fill:#fdb807;}.cls-14{stroke:#fcee21;stroke-width:0.51px;}.cls-15{fill:#fb946c;}</style></defs><title>codigo2</title><path class="cls-1" d="M71,20.51"/><path class="cls-2" d="M60.81,20.51"/><rect x="28.38" width="46.62" height="8.21"/><rect class="cls-3" x="28.38" y="8.21" width="46.62" height="55.38"/><rect class="cls-4" x="30.41" y="14.36" width="20.27" height="4.1"/><rect class="cls-5" x="30.41" y="22.56" width="6.08" height="4.1"/><rect class="cls-5" x="30.41" y="38.97" width="8.11" height="4.1"/><rect class="cls-4" x="52.7" y="38.97" width="6.08" height="4.1"/><rect class="cls-6" x="38.51" y="22.56" width="12.16" height="4.1"/><rect class="cls-6" x="52.7" y="14.36" width="4.05" height="4.1"/><rect class="cls-7" x="58.78" y="14.36" width="4.05" height="4.1"/><rect class="cls-6" x="64.86" y="14.36" width="8.11" height="4.1"/><rect class="cls-7" x="64.86" y="22.56" width="4.05" height="4.1"/><rect class="cls-6" x="70.95" y="22.56" width="2.03" height="4.1"/><rect class="cls-8" x="52.7" y="22.56" width="10.14" height="4.1"/><rect class="cls-6" x="30.41" y="30.77" width="24.32" height="4.1"/><rect class="cls-6" x="56.76" y="30.77" width="2.03" height="4.1"/><rect class="cls-7" x="60.81" y="30.77" width="4.05" height="4.1"/><rect class="cls-6" x="66.89" y="30.77" width="4.05" height="4.1"/><rect class="cls-7" x="60.81" y="38.97" width="10.14" height="4.1"/><rect class="cls-6" x="40.54" y="38.97" width="4.05" height="4.1"/><rect class="cls-8" x="46.62" y="38.97" width="4.05" height="4.1"/><ellipse class="cls-9" cx="19.26" cy="34.46" rx="17.23" ry="17.44"/><polygon class="cls-10" points="27.57 27.28 34.46 34.05 34.46 34.87 27.16 42.05 24.73 39.59 29.8 34.46 24.93 29.54 27.57 27.28"/><polygon class="cls-10" points="10.95 27.28 4.05 34.05 4.05 34.87 11.35 42.05 13.78 39.59 8.72 34.46 13.58 29.54 10.95 27.28"/><line class="cls-11" x1="22.3" y1="25.85" x2="15.81" y2="41.85"/><rect class="cls-12" y="51.28" width="70.95" height="28.72"/><rect class="cls-13" x="4.05" y="57.44" width="62.84" height="16.41"/><line class="cls-14" x1="4.05" y1="61.54" x2="66.89" y2="61.54"/><line class="cls-14" x1="4.05" y1="65.64" x2="66.89" y2="65.64"/><line class="cls-14" x1="4.05" y1="69.74" x2="66.89" y2="69.74"/><line class="cls-14" x1="8.11" y1="57.44" x2="8.11" y2="73.85"/><line class="cls-14" x1="12.16" y1="57.44" x2="12.16" y2="73.85"/><line class="cls-14" x1="16.22" y1="57.44" x2="16.22" y2="73.85"/><line class="cls-14" x1="20.27" y1="57.44" x2="20.27" y2="69.74"/><line class="cls-14" x1="24.32" y1="57.44" x2="24.32" y2="69.74"/><line class="cls-14" x1="28.38" y1="57.44" x2="28.38" y2="69.74"/><line class="cls-14" x1="32.43" y1="57.44" x2="32.43" y2="69.74"/><line class="cls-14" x1="36.49" y1="57.44" x2="36.49" y2="69.74"/><line class="cls-14" x1="40.54" y1="57.44" x2="40.54" y2="73.85"/><line class="cls-14" x1="44.59" y1="57.44" x2="44.59" y2="73.85"/><line class="cls-14" x1="50.68" y1="57.44" x2="50.68" y2="73.85"/><line class="cls-14" x1="56.76" y1="57.44" x2="56.76" y2="73.85"/><line class="cls-14" x1="62.84" y1="57.44" x2="62.84" y2="73.85"/><rect class="cls-15" x="16.22" y="69.74" width="24.32" height="4.1"/><rect class="cls-15" x="4.05" y="57.44" width="4.05" height="4.1"/><rect class="cls-15" x="56.76" y="53.33" width="2.03" height="2.05"/><rect class="cls-15" x="60.81" y="53.33" width="2.03" height="2.05"/><rect class="cls-15" x="64.86" y="53.33" width="2.03" height="2.05"/><rect class="cls-15" y="77.95" width="70.95" height="2.05"/></svg>