<svg id="Layer_1" data-name="Layer 1" xmlns="http://www.w3.org/2000/svg" viewBox="0 0 1003 1054.05"><defs><style>.cls-1{fill:#005385;}.cls-2{fill:#ff7021;}.cls-3{fill:#222c37;}</style></defs><title>diseno</title><g id="g4161"><path id="path4163" class="cls-1" d="M635.22,710.42c1.42-32.19,14-60.59,32.89-80.73h0c18.58-19.77,43.56-31.82,70.82-31.85h0c27.26,0,52.25,12.08,70.83,31.85h0c18.91,20.14,31.46,48.54,32.9,80.73,1.44,33.11-9.13,63.9-27.7,86.68h0c-18.91,23.19-45.87,37.76-76,37.76h0c-30.16,0-57.13-14.57-76.06-37.76h0C644.33,774.32,633.76,743.53,635.22,710.42Z"/></g><g id="g4165"><path id="path4167" class="cls-2" d="M470,775.62c.17,12.56,3.39,37.06,8.17,56.23h0a322.16,322.16,0,0,0,51,111h0c24.43,33.92,54.47,61.2,89.21,80.53h0c36.52,20.36,76.1,30.74,117.13,30.64h0c41.05-.09,80.61-10.64,117.13-31.12h0c34.71-19.55,64.75-46.9,89.16-80.91h0a324.7,324.7,0,0,0,50.94-111.23h0a345,345,0,0,0,9.58-62.08h0a355,355,0,0,0-1.57-61.66h0a337.07,337.07,0,0,0-32.5-111.9,300.14,300.14,0,0,0-59.33-82.24h0l0,0h0L669,281.1h0c-.2-.22-.4-.44-.61-.65h0c-15.79-15.17-42.25-15.12-59.55.11h0c-17.54,15.42-19.51,40.87-4,57h0l0,0h0L704.92,440l-305.13.4h-.42c-25.21,0-49.43,20.87-54.25,47.15h0c-4.9,26.8,12.23,49,38.44,49.13h0l0,.13h0l154.65-.38-276,266.4h0c-.34.34-.72.66-1.06,1h0c-26,25.07-34.43,66.78-18,93.17h0c16.65,26.84,52,26.86,78.33.11h0L472,742.1s-2.19,20.93-2,33.52Zm387,70C826,885.47,782.58,908,735.54,908.1h0c-47,.11-90.5-22.25-121.54-62h0a192.93,192.93,0,0,1-33.2-65.32h0a211,211,0,0,1-7.61-73h0a205.94,205.94,0,0,1,16.64-68.71h0A186.27,186.27,0,0,1,626.76,584h0c30.16-30.93,68.54-47.66,108.75-47.72h0c40.2-.06,78.57,16.53,108.75,47.34h0a185.08,185.08,0,0,1,36.89,55h0a206.05,206.05,0,0,1,16.68,68.65h0a210.82,210.82,0,0,1-7.64,73h0A193.68,193.68,0,0,1,857,845.66Z"/></g><path class="cls-3" d="M466.19,337.43,594.45,133.51l62,203.92-62,203.87L466.19,337.43Zm-62.51,33.12L532,574.43,308.55,521.74,147.16,370.55ZM531.93,100.37,403.68,304.29H147.16l161.4-151.2ZM715,268,636.78,0l-292,71.83-43.24,70-87.72-.58L0,337.45,213.77,533.61h0l87.69-.6,43.29,70,292,71.82,78.24-268-44.43-69.41L715,268Z"/></svg>