<?xml version="1.0" encoding="utf-8"?>
<!-- Generator: Adobe Illustrator 23.0.0, SVG Export Plug-In . SVG Version: 6.00 Build 0)  -->
<svg version="1.1" id="Layer_1" xmlns="http://www.w3.org/2000/svg" xmlns:xlink="http://www.w3.org/1999/xlink" x="0px" y="0px"
	 viewBox="0 0 1200 1200" style="enable-background:new 0 0 1200 1200;" xml:space="preserve">
<style type="text/css">
	.st0{fill:#005385;}
	.st1{fill:#FF7021;}
	.st2{fill:#222C37;}
</style>
<g id="g4161" transform="translate(-0.63683287,1.5502632)">
	<path id="path4163" class="st0" d="M635.9,708.9c1.4-32.2,14-60.6,32.9-80.7l0,0c18.6-19.8,43.6-31.8,70.8-31.9l0,0
		c27.3,0,52.2,12.1,70.8,31.9l0,0c18.9,20.1,31.5,48.5,32.9,80.7c1.4,33.1-9.1,63.9-27.7,86.7l0,0c-18.9,23.2-45.9,37.8-76,37.8l0,0
		c-30.2,0-57.1-14.6-76.1-37.8l0,0C645,772.8,634.4,742,635.9,708.9z"/>
</g>
<g id="g4165" transform="translate(-0.63683287,1.5502632)">
	<path id="path4167" class="st1" d="M470.7,774.1c0.2,12.6,3.4,37.1,8.2,56.2l0,0c10.1,40.5,27.2,78,51,111l0,0
		c24.4,33.9,54.5,61.2,89.2,80.5l0,0c36.5,20.4,76.1,30.7,117.1,30.6l0,0c41-0.1,80.6-10.6,117.1-31.1l0,0
		c34.7-19.5,64.8-46.9,89.2-80.9l0,0c23.8-33.2,40.8-70.7,50.9-111.2l0,0c5.1-20.5,8.3-41.2,9.6-62.1l0,0
		c1.3-20.5,0.7-41.1-1.6-61.7l0,0c-4.5-40-15.6-77.6-32.5-111.9c-15.6-31.5-35.5-59-59.3-82.2l0,0l0,0l0,0l-240-231.8l0,0
		c-0.2-0.2-0.4-0.4-0.6-0.6l0,0c-15.8-15.2-42.3-15.1-59.6,0.1l0,0c-17.5,15.4-19.5,40.9-4,57l0,0l-0.1,0l0,0l100.1,102.4
		l-305.1,0.4l0,0c-0.1,0-0.3,0-0.4,0l0,0c-25.2,0-49.4,20.9-54.2,47.1l0,0c-4.9,26.8,12.2,49,38.4,49.1l0,0l0,0.1l0,0l154.7-0.4
		l-276,266.4l0,0c-0.3,0.3-0.7,0.7-1.1,1l0,0c-26,25.1-34.4,66.8-18,93.2l0,0c16.7,26.8,52,26.9,78.3,0.1l0,0l150.6-155
		C472.7,740.6,470.5,761.5,470.7,774.1L470.7,774.1z M857.7,844.1c-31,39.8-74.4,62.3-121.5,62.4l0,0c-47.1,0.1-90.5-22.3-121.5-62
		l0,0c-15.2-19.4-26.3-41.6-33.2-65.3l0,0c-6.7-23.3-9.3-48-7.6-72.9l0,0c1.7-24.4,7.4-47.7,16.6-68.7l0,0
		c9.1-20.7,21.5-39.4,36.9-55.2l0,0c30.2-30.9,68.5-47.7,108.8-47.7l0,0c40.2-0.1,78.6,16.5,108.8,47.3l0,0
		c15.4,15.7,27.8,34.4,36.9,55l0,0c9.2,21,15,44.2,16.7,68.7l0,0c1.7,24.9-0.9,49.6-7.6,73l0,0C884,802.4,872.8,824.7,857.7,844.1
		L857.7,844.1z"/>
</g>
<path class="st2" d="M466.2,337.4l128.3-203.9l62,203.9l-62,203.9L466.2,337.4L466.2,337.4z M403.7,370.5L532,574.4l-223.4-52.7
	L147.2,370.5H403.7z M531.9,100.4L403.7,304.3H147.2l161.4-151.2L531.9,100.4z M715,268L636.8,0L344.7,71.8l-43.2,70l-87.7-0.6
	L0,337.4l213.8,196.2h0l87.7-0.6l43.3,70l292,71.8l78.2-268l-44.4-69.4L715,268L715,268z"/>
</svg>
