<?xml version="1.0" encoding="utf-8"?>
<!-- Svg Vector Icons : http://www.onlinewebfonts.com/icon -->
<!DOCTYPE svg PUBLIC "-//W3C//DTD SVG 1.1//EN" "http://www.w3.org/Graphics/SVG/1.1/DTD/svg11.dtd">
<svg version="1.1" xmlns="http://www.w3.org/2000/svg" xmlns:xlink="http://www.w3.org/1999/xlink" x="0px" y="0px" viewBox="0 0 1000 1000" enable-background="new 0 0 1000 1000" xml:space="preserve">
<metadata> Svg Vector Icons : http://www.onlinewebfonts.com/icon </metadata>
<g><path d="M823.5,533.4L553.7,307.9c-29.7-24.8-77.8-24.8-107.4,0L176.5,533.4c-14.8,12.4-26.9,38.1-26.9,57.5v329.8c0,38.7,31.3,70,70,70H360V711.5c0-38.7,31.3-70,70-70h140c38.7,0,70,31.3,70,70v279.1h140.4c38.7,0,70-31.3,70-70V581.9C850.4,562.5,838.4,545.8,823.5,533.4z"/><path d="M920.2,97.9c0-38.7-31.3-70-70-70H850c-38.7,0-70,31.3-70,70v51.4l140.2,115.4V97.9z"/><path d="M965,377.7l-419.5-352C532.2,14.6,516,9.2,500,9.3c-16-0.1-32.2,5.3-45.5,16.4L35,377.7c-29.6,24.9-33.5,69-8.6,98.6c24.9,29.6,69,33.5,98.6,8.6l375-314.7L875,485c29.6,24.9,73.8,21,98.6-8.6C998.5,446.7,994.6,402.6,965,377.7z"/></g>
</svg>