<?xml version="1.0" standalone="no"?><!DOCTYPE svg PUBLIC "-//W3C//DTD SVG 1.1//EN" "http://www.w3.org/Graphics/SVG/1.1/DTD/svg11.dtd"><svg class="icon" height="512" viewBox="0 0 1024 1024" version="1.1" xmlns="http://www.w3.org/2000/svg"><path d="M510.7 654.1c-15.5-34.3-18.7-82.2-10.1-127.1-39 5.6-81.2 8.8-125.6 8.8-190.5 0-345-56.9-345-127.1v152.5c0 70.2 154.4 127.1 345 127.1 53.2 0 103.3-4.6 148.3-12.5-4.5-6-8.8-13.1-12.6-21.7z m0 0M655.7 750.3c-6.8-10-12.8-20.2-18-30.5-63.3 27.4-157.4 44.8-262.7 44.8-190.5 0-345-56.9-345-127.1V790c0 70.2 154.4 127.1 345 127.1 170.1 0 311.1-45.4 339.4-105.1-21.3-15.6-41.5-36.4-58.7-61.7zM492 366.8c-1.3-6-2.6-12-4-18-1.1-4.5-1.6-8.8-2.2-13.1-0.4-3.5-0.8-6.9-1.9-10.5-2.5-8-7.5-17.1-12.4-25.9l-4.3-7.8c-1.2-2.3-2.9-5-4.7-8-11.3-18.8-32.5-53.8-15.3-87.7 11.3-22.5 32.3-33.4 57-30.4 30.4 3.7 62 27.1 78.2 40.7 3 2.5 6.2 6.1 9.4 9.7 1.2 1.4 2.9 3.3 4.2 4.7l3.5 0.6c38-0.4 82.8 21.5 120.4 60.1v-50.4c0-70.2-154.4-127.1-345-127.1-190.5 0-345 56.9-345 127.1v101.7c0 70.2 154.4 127.1 345 127.1 51.3 0 99.9-4.3 143.6-11.7-5.5-10.3-9.9-21.6-13.8-32.4-5.5-15.5-9.2-32.4-12.7-48.7zM949.2 812.2c-24.2-24.2-27-25.5-24-38 4.6-18.7 23.4-20 31.7-19.4 11.9 0.8 20.6 2.4 22.7 2-0.8-1-14.6-27.9-39.7-37-10.7-3.9-19.8-8.3-30.4-20-12.1-13.5-47.8-101.4-61.1-134.3-23.5-58.2-50-123.8-74.1-157.3-23.6-32.9-70.1-88.5-101.6-106.5-32.1-18.2-51.6-23.6-68.9-28.2-8.5-2.3-15.6-4.2-23.2-7.2-8.6-3.3-19.7-11.9-32.5-21.7-18.9-14.6-40.3-31.1-55.7-32.2-5.6-0.7-11.1 2.1-13.8 7.1-5.5 8.5-2.6 14.6 14.4 41.7 6.3 10 15 23.8 25.2 42.2 7.9 14 13.6 38.2 19.1 61.6 4.4 18.8 8.6 36.4 13.3 46.8 10.4 22.9 14.7 31.5 16.8 35.7l0.4 0.8c2.5 5 3.4 6.8 6 14.2 5 14.5-1.8 33.9-9.6 56.5-5.8 16.6-12.3 35.3-14.3 53.3-5.7 50.3 11.8 86.7 18.3 90.6 1.5-2.4 7.4-7.4 7.9-11.4 0.6-5.5 2.7-24.1 4.3-31.1 6-25.6 24.4-47.8 31.4-46.6 8.9 1.5 20.8 18.3 23.2 28.2l0.1 0.7c0.4 1.6 0.8 3.2 1.3 4.8l1.6 4.7c6.1 18.5 11.4 36.8 24.4 60.9 0 0 40.8 65.4 78 97.6 93.7 81.2 258.7 109 258.7 109s-14.7-32.3-49.9-67.5zM631.8 347.7c-2.4 11.3-12.7 18.2-15.8 20.1l-5.2 2.9-1.2-5.7c0-0.2-3-14.8-9.1-22.3-6.5-8-15.5-15.1-15.6-15.2l-4.6-3.6 4.8-3.2c0.4-0.2 9.2-6.3 20.3-5.5 8.6 0.7 16.3 5.3 21 12.5 4.8 5.6 6.7 12.9 5.4 20z" /></svg>