<svg id="Capa_1" data-name="Capa 1" xmlns="http://www.w3.org/2000/svg" viewBox="0 0 20.34 18.34"><defs><style>.cls-1,.cls-3{fill:none;stroke:#000;}.cls-1,.cls-3,.cls-4{stroke-miterlimit:10;}.cls-1{stroke-width:0.84px;}.cls-2{fill:#ff007a;}.cls-3{stroke-width:1.13px;}.cls-4{fill:#faffb9;stroke:#8bffcc;stroke-width:0.01px;}.cls-5{fill:#01adee;}</style></defs><title>Sistema</title><rect class="cls-1" x="0.42" y="0.42" width="19.5" height="17.5" rx="0.33"/><circle class="cls-2" cx="14.92" cy="10.92" r="3"/><line class="cls-3" x1="0.42" y1="6.11" x2="19.92" y2="6.11"/><line class="cls-3" x1="3.67" y1="8.73" x2="7.33" y2="10.92"/><line class="cls-3" x1="3.67" y1="13.98" x2="7.33" y2="10.92"/><line class="cls-3" x1="8.14" y1="14.42" x2="12.42" y2="14.42"/><ellipse cx="11.8" cy="3.48" rx="0.81" ry="0.88"/><ellipse cx="14.23" cy="3.48" rx="0.81" ry="0.88"/><ellipse cx="17.08" cy="3.48" rx="0.81" ry="0.88"/><path d="M9.85,12.72A.6.6,0,0,1,10,13a.71.71,0,0,1-.2.44.27.27,0,0,1-.08.07.25.25,0,0,1-.2-.06L9,13.1l0,0v0a.94.94,0,0,1,.39-.45c.08-.06.15-.13.25-.09A.47.47,0,0,1,9.85,12.72Z" transform="translate(-2.08 -2.08)"/><path class="cls-4" d="M17.34,13.07a.54.54,0,0,0,.3,0,.59.59,0,0,0,.18-.13.66.66,0,0,0,.11-.19.64.64,0,0,0-.05-.47.71.71,0,0,0-.23-.23.48.48,0,0,0-.19-.1.49.49,0,0,0-.23,0A.82.82,0,0,0,17,12l-.2.11-.13.12a.65.65,0,0,0-.09.13.64.64,0,0,0-.06.12.35.35,0,0,0,0,.12l0,.08a.85.85,0,0,0,0,.28,1.12,1.12,0,0,0,.11.35,1.17,1.17,0,0,0,.46.42,1.18,1.18,0,0,0,1.1-.07,1.36,1.36,0,0,0,.6-1.18,1.57,1.57,0,0,0-.71-1.2,1.79,1.79,0,0,0-1.84.06,1.85,1.85,0,0,0-.85,1.49A2.14,2.14,0,0,0,15.6,14a1.86,1.86,0,0,0,1.6,1L17,14.94l-.18-.09a1.83,1.83,0,0,1-.36-.24,2.29,2.29,0,0,1-.35-.34,2.44,2.44,0,0,1-.4-.64,2.25,2.25,0,0,1-.11-.43,1.76,1.76,0,0,1,.06-.82,1.56,1.56,0,0,1,1.41-1.08,1.42,1.42,0,0,1,.41,0,1.37,1.37,0,0,1,.47.23,1.4,1.4,0,0,1,.18.18,1.37,1.37,0,0,1,.16.26,1.06,1.06,0,0,1,.1.3,1.12,1.12,0,0,1-.06.61,1,1,0,0,1-.17.29.94.94,0,0,1-.36.23.83.83,0,0,1-.61,0,.71.71,0,0,1-.33-.25.89.89,0,0,1-.15-.33.66.66,0,0,1,0-.29.61.61,0,0,1,.12-.21.54.54,0,0,1,.43-.19.6.6,0,0,1,.33.16.58.58,0,0,1,.1.19.34.34,0,0,1,0,.16s0,.06,0,.08l0,.07a.37.37,0,0,1-.07.1l-.07.05A.61.61,0,0,1,17.34,13.07Z" transform="translate(-2.08 -2.08)"/><path class="cls-5" d="M4,5.17H6.25c0-.6,0-1.19,0-1.79L4,3.63C4,4.15,4,4.65,4,5.17Z" transform="translate(-2.08 -2.08)"/><path class="cls-5" d="M9.47,3c0,.71,0,1.43,0,2.15L9,5.13H6.51s0-1.55,0-1.69,0-.08.05-.1a1.81,1.81,0,0,1,.23,0l.51-.06,1-.12Z" transform="translate(-2.08 -2.08)"/><path class="cls-5" d="M6.54,5.37H9.45s0,0,0,0c0,.69,0,1.39,0,2.08a.86.86,0,0,0-.23,0L6.52,7.14V6.33C6.53,6,6.53,5.68,6.54,5.37Z" transform="translate(-2.08 -2.08)"/><path class="cls-5" d="M6.23,5.36c0,.59,0,1.19,0,1.78L4.55,7a4.9,4.9,0,0,0-.54,0V5.43s0-.06,0-.07H6.23Z" transform="translate(-2.08 -2.08)"/></svg>