<svg id="Capa_1" data-name="Capa 1" xmlns="http://www.w3.org/2000/svg" viewBox="0 0 38.14 33.5"><defs><style>.cls-1{fill:#e40014;}.cls-2{fill:#003c45;}.cls-3{fill:#ff8c17;}.cls-4{fill:#002da2;}.cls-5{fill:#e4db14;}</style></defs><title>sqlserver</title><path class="cls-1" d="M11.3,28,12,26a9.55,9.55,0,0,0,.34-1c.17-.72.39-1.41.52-2.14.07-.43.13-.87.23-1.29a21.86,21.86,0,0,0,.38-4.12c0-.82,0-1.63-.07-2.44,0,0,0,0,0,0a1,1,0,0,0-.23.07l-1.81.71c-1.34.53-2.68,1.13-4,1.74a6.1,6.1,0,0,0-.54.34l-.47.26c-.24.16-.5.28-.75.43s-.7.4-1,.59l-.33.21-.51.29-.21.13a.91.91,0,0,1-.11.16l-.13.16a8.45,8.45,0,0,0-.7,1.06,6,6,0,0,0-.39.81A4.89,4.89,0,0,0,1.89,23a2.77,2.77,0,0,0,.05,1.11,1.48,1.48,0,0,0,.13.35,4.81,4.81,0,0,0,1.3,1.46,6.9,6.9,0,0,0,.6.47,14,14,0,0,0,5.08,1.44A16.91,16.91,0,0,0,11.3,28Z" transform="translate(-1.86 -1.5)"/><path class="cls-2" d="M26.08,21.27a7.84,7.84,0,0,1-.31-4.22,25.87,25.87,0,0,1-3.94.29c-6,0-10.83-1.89-10.83-4.22v5.07c0,2.33,4.85,4.22,10.83,4.22A25.75,25.75,0,0,0,26.48,22a3.69,3.69,0,0,1-.4-.72Zm4.55,3.19a9.16,9.16,0,0,1-.56-1,20.71,20.71,0,0,1-8.24,1.49c-6,0-10.83-1.89-10.83-4.22v5.06C11,28.11,15.85,30,21.83,30c5.33,0,9.76-1.51,10.64-3.49A8.39,8.39,0,0,1,30.63,24.46ZM25.5,11.73c0-.2-.09-.39-.13-.59s-.05-.3-.07-.44a1.43,1.43,0,0,0-.06-.35,4.92,4.92,0,0,0-.39-.86l-.13-.26L24.57,9a3.19,3.19,0,0,1-.48-2.91,1.66,1.66,0,0,1,1.79-1A5.28,5.28,0,0,1,28.33,6.4a2.34,2.34,0,0,1,.3.32,1.83,1.83,0,0,0,.13.16l.11,0a5.43,5.43,0,0,1,3.78,2V7.22C32.65,4.89,27.8,3,21.82,3S11,4.89,11,7.22v3.37c0,2.34,4.84,4.22,10.82,4.22a26.35,26.35,0,0,0,4.51-.38,11.11,11.11,0,0,1-.44-1.08,14.17,14.17,0,0,1-.39-1.62Z" transform="translate(-1.86 -1.5)"/><path class="cls-1" d="M5.13,4.77,9.68,1.5l1.89,4.91L5.13,4.77" transform="translate(-1.86 -1.5)"/><path class="cls-3" d="M9,12.88A23.46,23.46,0,0,1,4.9,17.32l1-1.23A17,17,0,0,0,7,14.47a5.58,5.58,0,0,0,.74-1.86,4,4,0,0,0,.07-.78l0-.78a3.46,3.46,0,0,0,0-.46c.23,0,.46.09.69.14l.32.08.21,0a11.12,11.12,0,0,1,1.08.33s0,.06,0,.09C9.76,11.83,9.38,12.35,9,12.88Z" transform="translate(-1.86 -1.5)"/><path class="cls-4" d="M38.57,25.81c-.7-.79-.78-.83-.69-1.23a.8.8,0,0,1,.91-.63c.34,0,.59.07.65.06a2.64,2.64,0,0,0-1.14-1.2,2,2,0,0,1-.87-.65,35.29,35.29,0,0,1-1.75-4.36,31.81,31.81,0,0,0-2.13-5.1,14.12,14.12,0,0,0-2.91-3.46,6.83,6.83,0,0,0-2-.91A6.42,6.42,0,0,1,28,8.09a4.06,4.06,0,0,1-.93-.7,4.07,4.07,0,0,0-1.6-1,.39.39,0,0,0-.4.24c-.16.27-.07.47.42,1.35.18.32.43.77.72,1.37a10.16,10.16,0,0,1,.55,2,9.51,9.51,0,0,0,.38,1.52c.3.74.42,1,.48,1.15v0a2.86,2.86,0,0,1,.17.46,3.48,3.48,0,0,1-.27,1.83A8.39,8.39,0,0,0,27.12,18,4.39,4.39,0,0,0,27.64,21a1.11,1.11,0,0,0,.23-.37c0-.17.08-.78.12-1,.17-.84.7-1.56.9-1.52s.6.6.67.92v0a1.24,1.24,0,0,0,0,.16l0,.15a12.62,12.62,0,0,0,.7,2,17,17,0,0,0,2.24,3.16C35.27,27.1,40,28,40,28A8.4,8.4,0,0,0,38.57,25.81Zm-9.1-15.07a1.1,1.1,0,0,1-.46.65l-.15.09,0-.18a2.34,2.34,0,0,0-.26-.73,3.58,3.58,0,0,0-.45-.49L28,10l.14-.1a.86.86,0,0,1,.58-.18.75.75,0,0,1,.6.41.88.88,0,0,1,.16.65Z" transform="translate(-1.86 -1.5)"/><path d="M26.85,30.6h-.43V35h2l.28-.72H26.85V30.6ZM21,30.82,19.4,35h.52l.47-1.26h1l.27-.72h-1l.55-1.45L22.5,35H23l-1.58-4.19c-.1-.28-.36-.28-.47,0Zm3.05.5h1.8l.26-.72H24c-.72,0-1.2,1-1.2,2.2S23.28,35,24,35h1.76l.28-.72H24c-.49,0-.78-.66-.78-1.48S23.53,31.32,24,31.32Zm-9.2-.72H13c-.73,0-1.2,1-1.2,2.2S12.23,35,13,35h1.86c.72,0,1.2-1,1.2-2.2s-.48-2.2-1.2-2.2Zm0,3.68H13c-.49,0-.78-.66-.78-1.48s.29-1.48.78-1.48h1.86c.48,0,.77.66.77,1.48S15.3,34.28,14.82,34.28Zm14.36-1.13h2.27l.27-.72H29.18c.07-.64.34-1.11.75-1.11h1.8L32,30.6H29.92c-.73,0-1.2,1-1.2,2.2s.47,2.2,1.2,2.2h1.76l.28-.72h-2c-.42,0-.68-.48-.75-1.13Zm-10.72.06c.43,0,.78-.58.78-1.3s-.35-1.31-.78-1.31H16.27V35h.48V31.32h1.71c.19,0,.35.26.35.59s-.16.59-.35.59H17.09L18.63,35h.63l-1.11-1.79Z" transform="translate(-1.86 -1.5)"/><path class="cls-3" d="M10.58,15.14A22.87,22.87,0,0,0,13,12.42s0,0-.06,0a6.12,6.12,0,0,0-.77-.38L11,11.53s-.08.06-.11.1l-.28.45a24.63,24.63,0,0,1-1.38,2.06c-.28.36-.61.72-.88,1.08s-.48.54-.72.79c-.09.09-.19.23-.28.32l-.46.46s0,0,0,.06l1-.5.1-.06,1-.47c.35-.18.74-.31,1.1-.47l.15,0A.92.92,0,0,0,10.58,15.14Z" transform="translate(-1.86 -1.5)"/><path class="cls-3" d="M12.91,7.71l.22.06.37.1a12.71,12.71,0,0,1,1.9.7s0,0,0,.06,0,0,0,0a.21.21,0,0,0-.06.1c0,.1-.1.16-.15.24-.25.43-.49.86-.75,1.28s-.56.87-.87,1.28a16.42,16.42,0,0,0-2-.92.08.08,0,0,1-.05-.09.18.18,0,0,1,.05-.11.31.31,0,0,0,0-.1c.11-.22.22-.44.34-.66C12.3,9.06,12.61,8.37,12.91,7.71Z" transform="translate(-1.86 -1.5)"/><path class="cls-3" d="M12.62,14.35a7.86,7.86,0,0,0,.82-.27l1.39-.49s.05,0,.05-.06l-.05,0-1-.64a16.23,16.23,0,0,1-1.22,1.52Z" transform="translate(-1.86 -1.5)"/><path class="cls-3" d="M16.78,13.16c.35-.1.69-.22,1-.33l.2-.07.92-.32h0l0,0h0l0-.08c-.31-.42-.57-.88-.9-1.27a4.38,4.38,0,0,0-1.12-1l-.05,0a.05.05,0,0,0,0,0l-.22.45a13.71,13.71,0,0,1-.84,1.38l-.1.15a.44.44,0,0,0-.08.11l-.1.16s0,0,0,0l0,0,.07.06C16,12.7,16.4,12.9,16.78,13.16Z" transform="translate(-1.86 -1.5)"/><path class="cls-3" d="M5.4,5.7c2.21.64,4.42,1.23,6.65,1.77-.29.65-.59,1.32-.92,2L11,9.77l-.12.23-.15.27a10.07,10.07,0,0,0-1.22-.36l-.54-.15a9.64,9.64,0,0,0-1.29-.3c0-.12-.11-.25-.16-.37a5.5,5.5,0,0,0-.23-.61,2.53,2.53,0,0,0-.16-.33L6.94,7.9c-.22-.37-.46-.73-.71-1.08S5.7,6.07,5.4,5.7Z" transform="translate(-1.86 -1.5)"/><circle class="cls-5" cx="15.64" cy="18" r="0.5"/><circle class="cls-5" cx="22.64" cy="18" r="0.5"/></svg>