<?xml version="1.0" encoding="iso-8859-1"?>
<!-- Generator: Adobe Illustrator 19.0.0, SVG Export Plug-In . SVG Version: 6.00 Build 0)  -->
<svg version="1.1" id="Capa_1" xmlns="http://www.w3.org/2000/svg" xmlns:xlink="http://www.w3.org/1999/xlink" x="0px" y="0px"
	 viewBox="0 0 512.028 512.028" style="enable-background:new 0 0 512.028 512.028;" xml:space="preserve">
<g transform="translate(-1)">
	<g>
		<g>
			<path d="M177.607,346.627c22.693,31.936,44.8,59.877,59.337,77.714c3.163,3.931,6.117,7.488,8.805,10.725l4.343,5.257
				c1.794,1.953,4.33,3.057,6.983,3.039c2.652-0.017,5.173-1.154,6.942-3.131l4.261-5.166c2.688-3.237,5.641-6.793,8.768-10.679
				c14.583-17.856,36.681-45.797,59.374-77.714c21.912-30.249,41.635-62.025,59.017-95.086
				c17.371-34.121,26.149-61.769,26.149-82.149c-0.138-43.546-17.511-85.267-48.32-116.041l-0.137-0.119l-0.082-0.082
				C342.233,22.412,300.566,4.955,257.013,4.584c-43.67,0-85.549,17.356-116.416,48.247
				c-30.916,30.918-48.245,72.876-48.155,116.599c0,20.379,8.795,48.027,26.158,82.167
				C135.98,284.638,155.7,316.396,177.607,346.627z M192.364,95.363c17.109-17.201,40.388-26.844,64.649-26.779
				c5.049,0,9.143,4.093,9.143,9.143c0,5.049-4.093,9.143-9.143,9.143c-34.894,0.001-64.929,24.652-71.735,58.876
				c-6.806,34.224,11.511,68.491,43.749,81.843s69.42,2.073,88.806-26.942s15.576-67.682-9.099-92.355
				c-2.377-2.296-3.33-5.695-2.493-8.892c0.837-3.197,3.333-5.693,6.53-6.53c3.197-0.837,6.596,0.117,8.892,2.493
				c26.149,26.148,33.971,65.473,19.82,99.638s-47.49,56.441-84.469,56.441s-70.318-22.276-84.469-56.441
				C158.392,160.837,166.215,121.511,192.364,95.363z"/>
			<path d="M511.906,494.193L455.66,393.622c-1.833-3.185-5.258-5.117-8.933-5.038h-118.4
				c-14.336,19.017-27.429,35.41-37.093,47.287c-2.203,2.743-4.187,5.129-6.208,7.57h45.129c5.049,0,9.143,4.093,9.143,9.143
				c0,5.049-4.093,9.143-9.143,9.143h-72.896h-0.247h-0.247H183.87c-5.049,0-9.143-4.093-9.143-9.143
				c0-5.049,4.093-9.143,9.143-9.143h45.12c-2.021-2.441-4.014-4.846-6.254-7.616c-9.673-11.84-22.711-28.224-37.038-47.241h-118.4
				c-3.654-0.085-7.068,1.819-8.914,4.974L2.137,494.129c-1.536,2.589-1.515,5.815,0.055,8.384c1.852,3.126,5.246,5.009,8.878,4.928
				h491.886c3.625,0.089,7.017-1.78,8.878-4.891C513.399,499.991,513.428,496.778,511.906,494.193z M129.013,489.155H55.87
				c-5.049,0-9.143-4.093-9.143-9.143s4.093-9.143,9.143-9.143h73.143c5.049,0,9.143,4.093,9.143,9.143
				S134.062,489.155,129.013,489.155z M154.905,448.515c-1.346,2.018-3.438,3.418-5.816,3.893c-2.378,0.475-4.848-0.014-6.865-1.36
				l-25.097-16.75H83.298c-5.049,0-9.143-4.093-9.143-9.143c0-5.049,4.093-9.143,9.143-9.143h36.571
				c1.805,0.003,3.57,0.537,5.074,1.536l27.429,18.286c2.018,1.346,3.418,3.438,3.893,5.816
				C156.741,444.028,156.251,446.498,154.905,448.515z M366.727,452.584c-4.031,0.005-7.589-2.63-8.76-6.488
				c-1.171-3.857,0.323-8.026,3.677-10.262l27.429-18.286c1.507-1.001,3.275-1.535,5.083-1.536h36.571
				c5.049,0,9.143,4.093,9.143,9.143c0,5.049-4.093,9.143-9.143,9.143h-33.829l-25.125,16.75
				C370.279,452.045,368.524,452.579,366.727,452.584z M458.155,489.155h-73.143c-5.049,0-9.143-4.093-9.143-9.143
				s4.093-9.143,9.143-9.143h73.143c5.049,0,9.143,4.093,9.143,9.143S463.205,489.155,458.155,489.155z"/>
		</g>
	</g>
</g>
<g>
</g>
<g>
</g>
<g>
</g>
<g>
</g>
<g>
</g>
<g>
</g>
<g>
</g>
<g>
</g>
<g>
</g>
<g>
</g>
<g>
</g>
<g>
</g>
<g>
</g>
<g>
</g>
<g>
</g>
</svg>
