<svg id="Layer_1" data-name="Layer 1" xmlns="http://www.w3.org/2000/svg" viewBox="0 0 100 99.13"><defs><style>.cls-1{fill:#0d9f16;}.cls-2{fill:#fcfcfc;}.cls-2,.cls-3{fill-rule:evenodd;}.cls-3{fill:#fdfdfd;}</style></defs><title>ws</title><path class="cls-1" d="M100,49.56c0,27.36-22.39,49.57-50,49.57A49.79,49.79,0,0,1,0,49.56C0,22.19,22.38,0,50,0S100,22.19,100,49.56Z"/><path class="cls-2" d="M78.94,42.65C75.68,29.25,64,20.11,50,20a30.48,30.48,0,0,0-5.71.58,29.35,29.35,0,0,0-20.22,42.9,1.65,1.65,0,0,1,.13,1.32q-1.91,6.89-3.8,13.75c-.21.75-.21.75.55.56,4.8-1.25,9.6-2.48,14.39-3.75a1.45,1.45,0,0,1,1.08.12,29.65,29.65,0,0,0,19.5,2.74C72.18,75,82.82,58.63,78.94,42.65ZM54.13,73.46a20.31,20.31,0,0,1-3.4.33,25,25,0,0,1-13.38-3.52,1.81,1.81,0,0,0-1.52-.22c-2.63.72-5.28,1.37-7.92,2.06-.55.16-.6,0-.46-.45.7-2.49,1.35-5,2.07-7.4a2,2,0,0,0-.27-1.84,23.85,23.85,0,0,1,.88-27.33C36.42,26.78,45,23.38,55.21,25.55c10.08,2.1,16.51,8.56,18.88,18.5C77.32,57.65,68,71.17,54.13,73.46Z"/><path class="cls-3" d="M57.74,63.46A10.36,10.36,0,0,1,54.66,63c-6.81-1.94-11.92-6.17-16-11.73a16.85,16.85,0,0,1-3.47-6.86,8.22,8.22,0,0,1,2.69-7.95,4.92,4.92,0,0,1,3.93-.54,1.58,1.58,0,0,1,.7.79c.86,2,1.71,4,2.55,6.06a1.39,1.39,0,0,1-.09,1.16,9.36,9.36,0,0,1-1.83,2.42A1.18,1.18,0,0,0,43,48,20.24,20.24,0,0,0,53,56.61a1.2,1.2,0,0,0,1.57-.37c.73-.89,1.49-1.78,2.18-2.7a1.21,1.21,0,0,1,1.67-.43c1.44.64,2.88,1.32,4.32,2,.32.13.64.3,1,.45,1.46.72,1.44.74,1.32,2.33-.25,3.12-2.6,4.65-5.4,5.42A6.39,6.39,0,0,1,57.74,63.46Z"/></svg>